# xmcd
#
# Track frame offsets:
#	150
#	12693
#	25188
#	39381
#	49989
#	62587
#	74073
#	85161
#	96933
#	109052
#	119280
#	129778
#
# Disc length: 1880 seconds
#
# Revision: 0
# Processed by: cddbd v1.5.1PL0 Copyright (c) Steve Scherf et al.
# Submitted via: audiograbber 1.83.01
#
DISCID=a207560c
DTITLE=Shelter - When 20 Summers pass
DYEAR=2000
DGENRE=Punk Rock
TTITLE0=When 20 Summers pass
TTITLE1=In the Van again
TTITLE2=Song of Brahma
TTITLE3=Dont walk away
TTITLE4=Public Eye
TTITLE5=If theres only today
TTITLE6=Loss disguised as Gain
TTITLE7=Spirits bunded
TTITLE8=Crushing some one you love
TTITLE9=Look away
TTITLE10=Killer of my Dreams
TTITLE11=I cant change history
EXTD=
EXTT0=
EXTT1=
EXTT2=
EXTT3=
EXTT4=
EXTT5=
EXTT6=
EXTT7=
EXTT8=
EXTT9=
EXTT10=
EXTT11=
PLAYORDER=
